<svg xmlns="http://www.w3.org/2000/svg" version="1.1" xmlns:xlink="http://www.w3.org/1999/xlink" xmlns:svgjs="http://svgjs.dev/svgjs" width="128" height="128" viewBox="0 0 128 128"><g transform="matrix(0.8046875,0,0,0.8046875,12.41184074821259,12.814873242367177)"><svg viewBox="0 0 98 98" data-background-color="#f9f6ed" preserveAspectRatio="xMidYMid meet" height="127" width="128" xmlns="http://www.w3.org/2000/svg" xmlns:xlink="http://www.w3.org/1999/xlink"><g id="tight-bounds" transform="matrix(1,0,0,1,0.08387967645792571,0.08387967645792571)"><svg viewBox="0 0 97.83224064708415 97.83224064708415" height="97.83224064708415" width="97.83224064708415"><g><svg></svg></g><g><svg viewBox="0 0 97.83224064708415 97.83224064708415" height="97.83224064708415" width="97.83224064708415"><g><path d="M0 48.916c0-27.016 21.9-48.916 48.916-48.916 27.016 0 48.916 21.9 48.916 48.916 0 27.016-21.9 48.916-48.916 48.916-27.016 0-48.916-21.9-48.916-48.916zM48.916 93.244c24.481 0 44.328-19.846 44.328-44.328 0-24.481-19.846-44.328-44.328-44.327-24.481 0-44.328 19.846-44.327 44.327 0 24.481 19.846 44.328 44.327 44.328z" data-fill-palette-color="tertiary" fill="#000000" stroke="transparent"></path><ellipse rx="46.95947551060039" ry="46.95947551060039" cx="48.916120323542074" cy="48.916120323542074" fill="#000000" stroke="transparent" stroke-width="0" fill-opacity="1" data-fill-palette-color="tertiary"></ellipse></g><g transform="matrix(1,0,0,1,23.47815310939278,23.47539391502934)"><svg viewBox="0 0 50.875934428298585 50.88145281702547" height="50.88145281702547" width="50.875934428298585"><g><svg viewBox="0 0 50.875934428298585 50.88145281702547" height="50.88145281702547" width="50.875934428298585"><g><svg viewBox="0 0 50.875934428298585 50.88145281702547" height="50.88145281702547" width="50.875934428298585"><g id="textblocktransform"><svg viewBox="0 0 50.875934428298585 50.88145281702547" height="50.88145281702547" width="50.875934428298585" id="textblock"><g><svg viewBox="0 0 50.875934428298585 50.88145281702547" height="50.88145281702547" width="50.875934428298585"><g><svg viewBox="0 0 50.875934428298585 50.88145281702547" height="50.88145281702547" width="50.875934428298585"><g><svg xmlns="http://www.w3.org/2000/svg" xmlns:xlink="http://www.w3.org/1999/xlink" version="1.1" x="0" y="0" viewBox="13.48187499248256 13.473949539302708 73.04517298456165 73.05309601661365" enable-background="new 0 0 100 100" xml:space="preserve" height="50.88145281702547" width="50.875934428298585" class="icon-icon-0" data-fill-palette-color="quaternary" id="icon-0"><g fill="#f9f6ed" data-fill-palette-color="quaternary"><path d="M81.842 18.16A15.9 15.9 0 0 0 70.53 13.474C66.258 13.474 62.24 15.138 59.218 18.16L44.468 32.912A4 4 0 0 0 50.124 38.569L64.876 23.817C66.386 22.307 68.394 21.475 70.529 21.475S74.673 22.307 76.183 23.818C77.693 25.328 78.525 27.335 78.525 29.471S77.693 33.615 76.183 35.125L61.433 49.875A4 4 0 0 0 67.089 55.532L81.841 40.78A15.9 15.9 0 0 0 86.527 29.469 15.9 15.9 0 0 0 81.842 18.16" fill="#ffffff" data-fill-palette-color="quaternary"></path><path d="M49.875 61.433L35.122 76.185A7.94 7.94 0 0 1 29.469 78.527 7.95 7.95 0 0 1 23.815 76.185C20.699 73.068 20.699 67.995 23.815 64.876L38.567 50.125A4 4 0 0 0 38.567 44.468 4 4 0 0 0 32.912 44.468L18.158 59.22C11.923 65.457 11.923 75.605 18.159 81.841A15.9 15.9 0 0 0 29.469 86.527C33.742 86.527 37.759 84.863 40.78 81.841L55.532 67.089A4 4 0 1 0 49.875 61.433" fill="#ffffff" data-fill-palette-color="quaternary"></path><path d="M35.985 64.016C36.765 64.797 37.79 65.188 38.813 65.188S40.861 64.797 41.641 64.016L64.015 41.642A4 4 0 0 0 58.359 35.985L35.985 58.359A4 4 0 0 0 35.985 64.016" fill="#ffffff" data-fill-palette-color="quaternary"></path></g></svg></g></svg></g></svg></g></svg></g></svg></g><g></g></svg></g></svg></g></svg></g><defs></defs></svg><rect width="97.83224064708415" height="97.83224064708415" fill="none" stroke="none" visibility="hidden"></rect></g></svg></g></svg>