<svg xmlns="http://www.w3.org/2000/svg" version="1.1" xmlns:xlink="http://www.w3.org/1999/xlink" xmlns:svgjs="http://svgjs.dev/svgjs" width="2000" height="1999" viewBox="0 0 2000 1999"><g transform="matrix(1,0,0,1,-0.431486880466764,-0.4312711370263287)"><svg viewBox="0 0 343 343" data-background-color="#f9f6ed" preserveAspectRatio="xMidYMid meet" height="1999" width="2000" xmlns="http://www.w3.org/2000/svg" xmlns:xlink="http://www.w3.org/1999/xlink"><g id="tight-bounds" transform="matrix(1,0,0,1,0.0740000000000407,0.07400000000001228)"><svg viewBox="0 0 342.85155851775386 342.85155851775386" height="342.85155851775386" width="342.85155851775386"><g><svg></svg></g><g><svg viewBox="0 0 342.85155851775386 342.85155851775386" height="342.85155851775386" width="342.85155851775386"><g><path d="M0 171.426c0-94.676 76.75-171.426 171.426-171.426 94.676 0 171.426 76.75 171.426 171.426 0 94.676-76.75 171.426-171.426 171.426-94.676 0-171.426-76.75-171.426-171.426zM171.426 337.25c91.582 0 165.824-74.242 165.824-165.824 0-91.582-74.242-165.824-165.824-165.824-91.582 0-165.824 74.242-165.824 165.824 0 91.582 74.242 165.824 165.824 165.824z" data-fill-palette-color="tertiary" fill="#000000" stroke="transparent"></path><ellipse rx="164.56874808852186" ry="164.56874808852186" cx="171.42577925887693" cy="171.42577925887693" fill="#000000" stroke="transparent" stroke-width="0" fill-opacity="1" data-fill-palette-color="tertiary"></ellipse></g><g transform="matrix(1,0,0,1,64.84655864529837,90.11602175578071)"><svg viewBox="0 0 213.1584412271571 162.61951500619244" height="162.61951500619244" width="213.1584412271571"><g><svg viewBox="0 0 213.1584412271571 162.61951500619244" height="162.61951500619244" width="213.1584412271571"><g><svg viewBox="0 0 213.1584412271571 162.61951500619244" height="162.61951500619244" width="213.1584412271571"><g transform="matrix(1,0,0,1,0,100.50538424520903)"><svg viewBox="0 0 213.1584412271571 62.11413076098343" height="62.11413076098343" width="213.1584412271571"><g id="textblocktransform"><svg viewBox="0 0 213.1584412271571 62.11413076098343" height="62.11413076098343" width="213.1584412271571" id="textblock"><g><svg viewBox="0 0 213.1584412271571 62.11413076098343" height="62.11413076098343" width="213.1584412271571"><g transform="matrix(1,0,0,1,0,0)"><svg width="213.1584412271571" viewBox="2.51 -40.16 178.53 52.029999999999994" height="62.11413076098343" data-palette-color="#f9f6ed"><path d="M2.76 0L2.76-2Q4.03-2.34 4.81-2.64 5.59-2.93 6.02-3.44 6.45-3.96 6.58-4.81 6.71-5.66 6.71-7.13L6.71-7.13 6.71-33.94 2.51-35.3 2.51-37.35 16.7-37.35 16.7-35.3Q15.41-34.99 14.51-34.69 13.62-34.4 13.06-33.89 12.5-33.37 12.24-32.51 11.99-31.64 11.99-30.18L11.99-30.18 11.99-2.73 26.17-3.49 28.44-11.38 31.2-11.38 30.18 0.44 26.73 0 2.76 0ZM35.23 0L35.23-2Q36.52-2.34 37.34-2.64 38.16-2.93 38.63-3.44 39.11-3.96 39.29-4.81 39.48-5.66 39.48-7.13L39.48-7.13 39.48-17.21Q39.48-18.51 39.13-19.32 38.79-20.14 38.23-20.64 37.67-21.14 36.94-21.41 36.2-21.68 35.42-21.88L35.42-21.88 35.42-23.63Q37.08-23.95 38.35-24.18 39.62-24.41 40.65-24.65 41.67-24.88 42.54-25.18 43.41-25.49 44.28-25.93L44.28-25.93 45.19-25.46Q45.02-24.46 44.91-23.51 44.8-22.56 44.72-21.57 44.65-20.58 44.63-19.52 44.6-18.46 44.6-17.26L44.6-17.26 44.6-3.34 49.05-2 49.05 0 35.23 0ZM41.77-30.93L41.77-30.93Q40.99-30.93 40.35-31.2 39.72-31.47 39.28-31.92 38.84-32.37 38.6-32.97 38.35-33.57 38.35-34.25L38.35-34.25Q38.35-34.86 38.6-35.49 38.84-36.11 39.35-36.6 39.87-37.08 40.63-37.4 41.4-37.72 42.43-37.72L42.43-37.72Q43.11-37.72 43.74-37.49 44.36-37.26 44.81-36.84 45.26-36.43 45.53-35.83 45.8-35.23 45.8-34.5L45.8-34.5Q45.8-33.69 45.47-33.04 45.14-32.4 44.58-31.92 44.02-31.45 43.28-31.19 42.55-30.93 41.77-30.93ZM52.02 0L52.02-2Q53.36-2.42 54.16-2.72 54.95-3.03 55.35-3.53 55.76-4.03 55.87-4.86 55.98-5.69 55.98-7.13L55.98-7.13 55.98-16.92Q55.98-18.21 55.62-19.01 55.27-19.8 54.69-20.25 54.12-20.7 53.39-20.95 52.66-21.19 51.87-21.39L51.87-21.39 51.87-23.14Q53-23.36 53.82-23.52 54.63-23.68 55.29-23.84 55.95-24 56.51-24.18 57.08-24.37 57.66-24.6 58.25-24.83 58.93-25.15 59.61-25.46 60.52-25.93L60.52-25.93 61.49-25.42 61.18-21.51Q62.01-21.97 62.91-22.49L62.91-22.49Q63.69-22.92 64.63-23.46 65.57-24 66.52-24.54L66.52-24.54Q66.77-24.61 67.23-24.76 67.7-24.9 68.29-25.05 68.89-25.2 69.59-25.32 70.28-25.44 70.97-25.44L70.97-25.44Q72.82-25.44 74.06-25.07 75.29-24.71 76.04-24.06 76.8-23.41 77.18-22.51 77.56-21.61 77.69-20.56 77.83-19.51 77.83-18.32 77.83-17.14 77.83-15.92L77.83-15.92 77.85-3.34Q78.78-3 79.58-2.73L79.58-2.73Q80.29-2.49 80.98-2.28 81.66-2.08 82.03-2L82.03-2 82.03 0 68.82 0 68.82-2Q69.82-2.29 70.5-2.48 71.19-2.66 71.61-2.87 72.04-3.08 72.27-3.36 72.5-3.64 72.59-4.11 72.68-4.59 72.69-5.32 72.7-6.05 72.7-7.18L72.7-7.18 72.7-18.68Q72.7-19.17 72.57-19.63 72.43-20.09 72.24-20.31L72.24-20.31Q71.94-20.58 71.61-20.78 71.28-20.97 70.8-21.09 70.31-21.22 69.62-21.28 68.94-21.34 67.99-21.34L67.99-21.34Q66.96-21.34 65.96-21.13 64.96-20.92 64.06-20.62 63.15-20.31 62.4-19.93 61.64-19.56 61.1-19.21L61.1-19.21 61.1-3.34 65.33-2 65.33 0 52.02 0ZM84.12 0L84.12-2Q85.39-2.34 86.17-2.64 86.96-2.93 87.38-3.44 87.81-3.96 87.94-4.81 88.08-5.66 88.08-7.13L88.08-7.13 88.08-31.42Q88.08-32.74 87.74-33.46 87.39-34.18 86.82-34.57 86.25-34.96 85.51-35.13 84.78-35.3 83.98-35.5L83.98-35.5 83.98-37.28Q85.08-37.5 85.91-37.67 86.74-37.84 87.41-38.01 88.08-38.18 88.64-38.37 89.2-38.55 89.8-38.79 90.4-39.04 91.08-39.37 91.76-39.7 92.67-40.16L92.67-40.16 93.57-39.65Q93.4-37.94 93.32-35.8 93.23-33.67 93.21-31.34 93.18-29 93.19-26.61 93.21-24.22 93.21-21.97L93.21-21.97 93.21-3.34 97.11-2 97.11 0 84.12 0ZM102.48-3L94.6-12.87Q95.16-13.23 95.92-13.9 96.67-14.58 97.49-15.41 98.31-16.24 99.1-17.13 99.89-18.02 100.52-18.82 101.14-19.63 101.53-20.26 101.92-20.9 101.92-21.19L101.92-21.19Q101.92-21.56 101.64-21.84 101.36-22.12 100.94-22.33 100.53-22.53 100.02-22.67 99.5-22.8 99.06-22.9L99.06-22.9 99.06-24.9 111.78-24.9 111.78-22.9Q110.49-22.68 109.66-22.5 108.83-22.31 108.29-22.11 107.76-21.9 107.4-21.64 107.05-21.39 106.73-21.07L106.73-21.07Q105.97-20.31 105.13-19.31 104.29-18.31 103.4-17.26 102.51-16.21 101.59-15.2 100.68-14.18 99.8-13.4L99.8-13.4Q101.73-11.18 103.61-9.2L103.61-9.2Q104.39-8.35 105.24-7.48 106.1-6.62 106.91-5.81 107.73-5 108.5-4.32 109.27-3.64 109.88-3.2L109.88-3.2Q110.37-2.86 111.13-2.53 111.88-2.2 112.49-2L112.49-2 112.49 0 105.63 0.54 102.48-3ZM117.32-10.82L117.32-33.94 113.64-35.3 113.64-37.35 123.18-37.35Q123.01-36.72 122.9-36.02 122.79-35.33 122.72-34.41 122.65-33.5 122.62-32.28 122.6-31.05 122.59-29.35 122.57-27.64 122.57-25.37 122.57-23.1 122.57-20.09L122.57-20.09 122.57-13.92Q122.57-11.33 122.88-9.48 123.18-7.64 123.96-6.46 124.75-5.27 126.13-4.72 127.5-4.17 129.68-4.17L129.68-4.17Q131.31-4.17 132.78-4.43 134.24-4.69 135.57-5.21 136.9-5.74 138.16-6.53 139.42-7.32 140.64-8.4L140.64-8.4 140.64-33.94 137.88-35.3 137.88-37.35 149.65-37.35 149.65-35.3Q149.01-35.03 148.34-34.86 147.67-34.69 147.13-34.3 146.6-33.91 146.25-33.14 145.91-32.37 145.91-30.91L145.91-30.91 145.91-18.36Q145.94-15.97 145.96-14.18 145.99-12.4 146-11.05 146.01-9.69 146.05-8.65 146.08-7.62 146.12-6.75 146.16-5.88 146.23-5.08 146.3-4.27 146.4-3.34L146.4-3.34 149.97-2 149.97 0 141.18 0Q141.13-0.93 141.1-1.88L141.1-1.88Q141.05-2.69 141.04-3.6 141.03-4.52 141.01-5.3L141.01-5.3Q140.57-4.81 139.85-4.19 139.13-3.56 138.19-2.93 137.25-2.29 136.11-1.67 134.98-1.05 133.72-0.57 132.46-0.1 131.12 0.2 129.78 0.49 128.43 0.49L128.43 0.49Q127.24 0.49 125.95 0.39 124.67 0.29 123.44-0.07 122.21-0.44 121.1-1.17 119.99-1.9 119.14-3.16 118.3-4.42 117.81-6.29 117.32-8.15 117.32-10.82L117.32-10.82ZM157.82 5.22L157.82-17.36Q157.82-18.68 157.56-19.41 157.29-20.14 156.8-20.53 156.31-20.92 155.65-21.09 154.99-21.26 154.19-21.46L154.19-21.46 154.19-23.22Q155.38-23.41 156.41-23.67 157.43-23.93 158.4-24.26 159.36-24.58 160.29-25 161.22-25.42 162.22-25.93L162.22-25.93 163.15-25.44Q163.07-24.51 163.04-23.56 163-22.61 162.95-21.51L162.95-21.51Q163.63-21.97 164.61-22.66 165.59-23.34 166.67-23.95 167.76-24.56 168.88-25 170.01-25.44 171.01-25.44L171.01-25.44Q171.45-25.44 172.4-25.33 173.35-25.22 174.5-24.77 175.65-24.32 176.86-23.4 178.06-22.49 179.04-20.87L179.04-20.87Q179.82-19.56 180.43-17.74 181.04-15.92 181.04-13.38L181.04-13.38Q181.04-10.25 180.3-8 179.55-5.74 178.37-4.17 177.18-2.61 175.73-1.67 174.28-0.73 172.85-0.22 171.42 0.29 170.18 0.45 168.93 0.61 168.2 0.61L168.2 0.61Q167.15 0.61 165.75 0.43 164.34 0.24 162.95 0L162.95 0 162.95 8.5 168.42 9.86 168.42 11.87 154.85 11.87 154.85 9.86Q155.8 9.59 156.38 9.31 156.97 9.03 157.29 8.56 157.6 8.08 157.71 7.3 157.82 6.52 157.82 5.22L157.82 5.22ZM162.95-18.92L162.95-4.2Q164.34-3.49 166.04-2.99 167.74-2.49 169.52-2.49L169.52-2.49Q171.25-2.49 172.46-3.19 173.67-3.88 174.41-5.11 175.16-6.35 175.49-8.01 175.82-9.67 175.82-11.57L175.82-11.57Q175.82-13.6 175.41-15.41 175.01-17.21 174.29-18.57 173.57-19.92 172.58-20.72 171.59-21.51 170.42-21.51L170.42-21.51Q169.54-21.51 168.44-21.2 167.35-20.9 166.28-20.48 165.22-20.07 164.33-19.63 163.44-19.19 162.95-18.92L162.95-18.92Z" opacity="1" transform="matrix(1,0,0,1,0,0)" fill="#ffffff" class="wordmark-text-0" data-fill-palette-color="quaternary" id="text-0"></path></svg></g></svg></g></svg></g></svg></g><g transform="matrix(1,0,0,1,63.663011274467024,0)"><svg viewBox="0 0 85.83241867822306 85.84172871167911" height="85.84172871167911" width="85.83241867822306"><g><svg xmlns="http://www.w3.org/2000/svg" xmlns:xlink="http://www.w3.org/1999/xlink" version="1.1" x="0" y="0" viewBox="13.48187499248256 13.473949539302708 73.04517298456165 73.05309601661365" enable-background="new 0 0 100 100" xml:space="preserve" height="85.84172871167911" width="85.83241867822306" class="icon-icon-0" data-fill-palette-color="quaternary" id="icon-0"><g fill="#f9f6ed" data-fill-palette-color="quaternary"><path d="M81.842 18.16A15.9 15.9 0 0 0 70.53 13.474C66.258 13.474 62.24 15.138 59.218 18.16L44.468 32.912A4 4 0 0 0 50.124 38.569L64.876 23.817C66.386 22.307 68.394 21.475 70.529 21.475S74.673 22.307 76.183 23.818C77.693 25.328 78.525 27.335 78.525 29.471S77.693 33.615 76.183 35.125L61.433 49.875A4 4 0 0 0 67.089 55.532L81.841 40.78A15.9 15.9 0 0 0 86.527 29.469 15.9 15.9 0 0 0 81.842 18.16" fill="#ffffff" data-fill-palette-color="quaternary"></path><path d="M49.875 61.433L35.122 76.185A7.94 7.94 0 0 1 29.469 78.527 7.95 7.95 0 0 1 23.815 76.185C20.699 73.068 20.699 67.995 23.815 64.876L38.567 50.125A4 4 0 0 0 38.567 44.468 4 4 0 0 0 32.912 44.468L18.158 59.22C11.923 65.457 11.923 75.605 18.159 81.841A15.9 15.9 0 0 0 29.469 86.527C33.742 86.527 37.759 84.863 40.78 81.841L55.532 67.089A4 4 0 1 0 49.875 61.433" fill="#ffffff" data-fill-palette-color="quaternary"></path><path d="M35.985 64.016C36.765 64.797 37.79 65.188 38.813 65.188S40.861 64.797 41.641 64.016L64.015 41.642A4 4 0 0 0 58.359 35.985L35.985 58.359A4 4 0 0 0 35.985 64.016" fill="#ffffff" data-fill-palette-color="quaternary"></path></g></svg></g></svg></g><g></g></svg></g></svg></g></svg></g></svg></g><defs></defs></svg><rect width="342.85155851775386" height="342.85155851775386" fill="none" stroke="none" visibility="hidden"></rect></g></svg></g></svg>